<svg xmlns="http://www.w3.org/2000/svg" width="720" height="230" viewBox="0 0 720 430">
<rect width="720" height="430" fill="none"/><g transform="translate(232 5) scale(1.0)"><path d="M65 88 C69 55 95 33 128 33 C155 33 178 48 188 72 C217 73 238 94 238 122 C238 152 214 174 183 174 H73 C39 174 18 151 18 121 C18 96 37 76 65 88 Z" fill="#0F6FFF"/>
      <path d="M76 174 V204 H51 V226 M128 174 V226 M180 174 V204 H205 V226" fill="none" stroke="#0F6FFF" stroke-width="10" stroke-linecap="round" stroke-linejoin="round"/>
      <circle cx="51" cy="231" r="7" fill="#0F6FFF"/><circle cx="128" cy="231" r="7" fill="#0F6FFF"/><circle cx="205" cy="231" r="7" fill="#0F6FFF"/>
    </g>
<text x="360" y="320" text-anchor="middle" font-family="Arial, Helvetica, sans-serif" font-size="92" font-weight="800" letter-spacing="5" fill="#081B3D">JNIT</text>
<text x="360" y="368" text-anchor="middle" font-family="Arial, Helvetica, sans-serif" font-size="31" font-weight="600" letter-spacing="6" fill="#667085">CLOUD SOLUTIONS</text>
</svg>